Coordinates
version=1
nRows=14
nColumns=40
inDegrees=yes

Units are S.I. units (second, meters, Newtons, ...)
If the header above contains a line with 'inDegrees', this indicates whether rotational values are in degrees (yes) or radians (no).

endheader
time	pelvis_tilt	pelvis_list	pelvis_rotation	pelvis_tx	pelvis_ty	pelvis_tz	hip_flexion_r	hip_adduction_r	hip_rotation_r	knee_angle_r	knee_angle_r_beta	ankle_angle_r	subtalar_angle_r	mtp_angle_r	hip_flexion_l	hip_adduction_l	hip_rotation_l	knee_angle_l	knee_angle_l_beta	ankle_angle_l	subtalar_angle_l	mtp_angle_l	lumbar_extension	lumbar_bending	lumbar_rotation	arm_flex_r	arm_add_r	arm_rot_r	elbow_flex_r	pro_sup_r	wrist_flex_r	wrist_dev_r	arm_flex_l	arm_add_l	arm_rot_l	elbow_flex_l	pro_sup_l	wrist_flex_l	wrist_dev_l
      2.37500000	     17.32645136	     -9.39039786	     -4.82715064	     -0.32740550	      0.96291896	     -1.04351002	     26.91540814	      3.05186116	     -9.15883025	      5.76440414	      0.10060783	     -2.75016376	      0.00000000	      0.00000000	     11.18811213	    -12.11627485	    -15.55437889	     58.51976416	      1.02136256	     17.25160846	      0.00000000	      0.00000000	    -23.61512703	      1.72379266	     11.27261469	     89.79214466	    -18.54212164	     43.75898468	     28.12081208	     84.42995169	      0.00000000	      0.00000000	     89.88653418	    -19.46175287	     53.32816055	     41.54066972	     86.32174739	      0.00000000	      0.00000000
      2.38000000	     17.33355037	     -9.39905675	     -4.82547705	     -0.32770892	      0.96220056	     -1.04346508	     26.95646478	      3.05850057	     -9.17778105	      5.78217402	      0.10091797	     -2.96956528	      0.00000000	      0.00000000	     11.28990637	    -12.18515305	    -15.59276197	     58.72659194	      1.02497239	     17.29757824	      0.00000000	      0.00000000	    -23.65325405	      1.67126243	     11.44226332	     89.79281452	    -18.86206673	     44.07571642	     28.30100480	     83.92873738	      0.00000000	      0.00000000	     89.88731521	    -19.11670850	     53.11041155	     41.24799504	     86.27773788	      0.00000000	      0.00000000
      2.38500000	     17.33391189	     -9.37797520	     -4.80016245	     -0.32800140	      0.96141480	     -1.04330909	     27.03195600	      3.03317501	     -9.22717189	      5.85494016	      0.10218798	     -2.92187114	      0.00000000	      0.00000000	     11.42256046	    -12.23302395	    -15.57981205	     58.94333705	      1.02875530	     17.35537590	      0.00000000	      0.00000000	    -23.70775490	      1.62392950	     11.32705328	     89.79464546	    -18.65669724	     43.53858259	     28.13250983	     84.71818366	      0.00000000	      0.00000000	     89.88773129	    -19.33318131	     53.14975565	     41.46465107	     86.22555744	      0.00000000	      0.00000000
      2.39000000	     17.40842789	     -9.27097559	     -4.81951113	     -0.32813336	      0.96081061	     -1.04325092	     27.01911204	      2.94600517	     -9.33251213	      5.90814622	      0.10311660	     -2.73728462	      0.00000000	      0.00000000	     11.41081064	    -12.17214118	    -15.69197576	     59.08546277	      1.03123587	     17.41462719	      0.00000000	      0.00000000	    -23.80736000	      1.46933114	     11.31460500	     89.79560269	    -18.61504484	     43.42128649	     28.03439699	     84.66817791	      0.00000000	      0.00000000	     89.88793784	    -19.35400434	     53.14598575	     41.49844397	     86.14107551	      0.00000000	      0.00000000
      2.39500000	     17.48002783	     -9.29234930	     -4.79194143	     -0.32824383	      0.96009001	     -1.04313644	     26.95558118	      2.97247855	     -9.42475060	      5.84859971	      0.10207732	     -2.78715062	      0.00000000	      0.00000000	     11.42333026	    -12.27366407	    -15.74481900	     59.28980908	      1.03480238	     17.45924213	      0.00000000	      0.00000000	    -23.90579643	      1.42146551	     11.38186418	     89.79380950	    -18.82226246	     43.66304912	     28.20641412	     84.26163989	      0.00000000	      0.00000000	     89.88903310	    -19.13774713	     52.93330994	     41.28014386	     86.24548250	      0.00000000	      0.00000000
      2.40000000	     17.41245289	     -9.23287085	     -4.72558520	     -0.32872938	      0.95918228	     -1.04315953	     27.13395428	      2.88427208	     -9.46359661	      5.93522505	      0.10358922	     -2.79141762	      0.00000000	      0.00000000	     11.66040827	    -12.24476536	    -15.66316752	     59.50207999	      1.03850721	     17.54508167	      0.00000000	      0.00000000	    -23.89611709	      1.37020463	     11.26658220	     89.79891287	    -18.70155138	     43.36237281	     28.06347475	     84.31570448	      0.00000000	      0.00000000	     89.88946889	    -19.24789148	     52.89344394	     41.42393824	     86.33281241	      0.00000000	      0.00000000
      2.40500000	     17.34695886	     -9.26050953	     -4.65002946	     -0.32881163	      0.95823739	     -1.04309384	     27.26000658	      2.88792355	     -9.63538471	      5.98000871	      0.10437084	     -2.70269226	      0.00000000	      0.00000000	     11.88267550	    -12.33248631	    -15.57906990	     59.74427968	      1.04273439	     17.64493576	      0.00000000	      0.00000000	    -23.85458550	      1.39252787	     11.22568831	     89.79987629	    -18.74166710	     43.32343930	     28.09064977	     84.60052361	      0.00000000	      0.00000000	     89.88991438	    -19.21267120	     52.89280011	     41.37568781	     86.16561882	      0.00000000	      0.00000000
      2.41000000	     17.39945230	     -9.22544619	     -4.63990936	     -0.32902762	      0.95754787	     -1.04304639	     27.22617591	      2.86504882	     -9.60378349	      5.92163363	      0.10335200	     -2.73380070	      0.00000000	      0.00000000	     11.92052214	    -12.35589878	    -15.63961247	     59.92993315	      1.04597465	     17.69623761	      0.00000000	      0.00000000	    -23.95302593	      1.31680215	     11.23597100	     89.80008620	    -18.74284411	     43.13791699	     28.08078009	     84.34157511	      0.00000000	      0.00000000	     89.89075452	    -19.16653665	     52.78729225	     41.36383668	     86.32087853	      0.00000000	      0.00000000
      2.41500000	     17.44782083	     -9.20204252	     -4.58393449	     -0.32917604	      0.95678039	     -1.04302099	     27.23557741	      2.82193568	     -9.67648568	      5.95645979	      0.10395984	     -2.66663346	      0.00000000	      0.00000000	     11.98799309	    -12.38159466	    -15.63658826	     60.14084975	      1.04965584	     17.76483410	      0.00000000	      0.00000000	    -24.02337580	      1.27221300	     11.19769181	     89.80292359	    -18.74155317	     43.10417974	     27.97394332	     84.52096240	      0.00000000	      0.00000000	     89.89127863	    -19.12355963	     52.74205594	     41.28698951	     86.22493258	      0.00000000	      0.00000000
      2.42000000	     17.53616841	     -9.21642123	     -4.55989906	     -0.32922715	      0.95616382	     -1.04289179	     27.15299301	      2.84040902	     -9.70586627	      5.89502738	      0.10288764	     -2.60157579	      0.00000000	      0.00000000	     11.96260211	    -12.45895915	    -15.69340671	     60.29392888	      1.05232758	     17.85442544	      0.00000000	      0.00000000	    -24.14706895	      1.24217923	     11.23839943	     89.80429653	    -18.79044596	     42.93264160	     28.06731011	     84.74015004	      0.00000000	      0.00000000	     89.89223035	    -19.08660072	     52.70178438	     41.32482537	     86.09376698	      0.00000000	      0.00000000
      2.42500000	     17.42340892	     -9.19503225	     -4.50232683	     -0.32956624	      0.95514417	     -1.04287852	     27.36554565	      2.80036041	     -9.76492410	      5.96390394	      0.10408976	     -2.62544143	      0.00000000	      0.00000000	     12.25576212	    -12.48726501	    -15.61169776	     60.54422221	      1.05669602	     17.91892643	      0.00000000	      0.00000000	    -24.07530678	      1.22383905	     11.16791400	     89.80583000	    -18.76358784	     42.82479928	     28.02150375	     84.54010800	      0.00000000	      0.00000000	     89.89291649	    -19.08917826	     52.60394852	     41.33166840	     86.21152157	      0.00000000	      0.00000000
      2.43000000	     17.46974020	     -9.15220195	     -4.46883481	     -0.32972777	      0.95444383	     -1.04290518	     27.34887043	      2.76015513	     -9.78297764	      5.92722656	      0.10344962	     -2.64912081	      0.00000000	      0.00000000	     12.29014340	    -12.46054953	    -15.60842983	     60.68114416	      1.05908576	     18.01596051	      0.00000000	      0.00000000	    -24.15068033	      1.15129666	     11.19809204	     89.80656522	    -18.85770235	     42.83955349	     28.00928871	     84.45037654	      0.00000000	      0.00000000	     89.89380431	    -18.96755217	     52.54996352	     41.23598342	     86.16994534	      0.00000000	      0.00000000
      2.43500000	     17.46701069	     -9.11079168	     -4.39883837	     -0.32998203	      0.95367096	     -1.04290591	     27.39814368	      2.70425803	     -9.81905675	      5.90030009	      0.10297966	     -2.68701450	      0.00000000	      0.00000000	     12.42861017	    -12.45370340	    -15.57180651	     60.88296636	      1.06260822	     18.06291599	      0.00000000	      0.00000000	    -24.18337489	      1.11046921	     11.08364383	     89.80854303	    -18.76264410	     42.65596941	     27.99088796	     84.24046044	      0.00000000	      0.00000000	     89.89457383	    -19.00423641	     52.42884075	     41.23660282	     86.31268787	      0.00000000	      0.00000000
      2.44000000	     17.48597742	     -9.10804554	     -4.33022704	     -0.33016899	      0.95296322	     -1.04288081	     27.41847551	      2.68463864	     -9.85752863	      5.87746885	      0.10258118	     -2.73856680	      0.00000000	      0.00000000	     12.53568732	    -12.47121780	    -15.48468817	     61.06717374	      1.06582325	     18.13417863	      0.00000000	      0.00000000	    -24.24449805	      1.09841077	     11.02264623	     89.80941853	    -18.74287328	     42.50653345	     27.99083974	     84.44797063	      0.00000000	      0.00000000	     89.89506683	    -18.99654487	     52.43193168	     41.22342350	     86.20107238	      0.00000000	      0.00000000
